<?xml version="1.0" encoding="UTF-8" standalone="no"?>
<!DOCTYPE svg PUBLIC "-//W3C//DTD SVG 1.1//EN" "http://www.w3.org/Graphics/SVG/1.1/DTD/svg11.dtd">
<svg width="832" height="832" viewBox="0 0 768 768" xmlns="http://www.w3.org/2000/svg" xmlns:xlink="http://www.w3.org/1999/xlink">
	<!-- mezők -->
	<rect fill="#FFF" x="0" y="0" width="96" height="96"/>
	<rect fill="#AAA" x="96" y="0" width="96" height="96"/>
	<rect fill="#FFF" x="192" y="0" width="96" height="96"/>
	<rect fill="#AAA" x="288" y="0" width="96" height="96"/>
	<rect fill="#FFF" x="384" y="0" width="96" height="96"/>
	<rect fill="#AAA" x="480" y="0" width="96" height="96"/>
	<rect fill="#FFF" x="576" y="0" width="96" height="96"/>
	<rect fill="#AAA" x="672" y="0" width="96" height="96"/>
	<rect fill="#AAA" x="0" y="96" width="96" height="96"/>
	<rect fill="#FFF" x="96" y="96" width="96" height="96"/>
	<rect fill="#AAA" x="192" y="96" width="96" height="96"/>
	<rect fill="#FFF" x="288" y="96" width="96" height="96"/>
	<rect fill="#AAA" x="384" y="96" width="96" height="96"/>
	<rect fill="#FFF" x="480" y="96" width="96" height="96"/>
	<rect fill="#AAA" x="576" y="96" width="96" height="96"/>
	<rect fill="#FFF" x="672" y="96" width="96" height="96"/>
	<rect fill="#FFF" x="0" y="192" width="96" height="96"/>
	<rect fill="#AAA" x="96" y="192" width="96" height="96"/>
	<rect fill="#FFF" x="192" y="192" width="96" height="96"/>
	<rect fill="#AAA" x="288" y="192" width="96" height="96"/>
	<rect fill="#FFF" x="384" y="192" width="96" height="96"/>
	<rect fill="#AAA" x="480" y="192" width="96" height="96"/>
	<rect fill="#FFF" x="576" y="192" width="96" height="96"/>
	<rect fill="#AAA" x="672" y="192" width="96" height="96"/>
	<rect fill="#AAA" x="0" y="288" width="96" height="96"/>
	<rect fill="#FFF" x="96" y="288" width="96" height="96"/>
	<rect fill="#AAA" x="192" y="288" width="96" height="96"/>
	<rect fill="#FFF" x="288" y="288" width="96" height="96"/>
	<rect fill="#AAA" x="384" y="288" width="96" height="96"/>
	<rect fill="#FFF" x="480" y="288" width="96" height="96"/>
	<rect fill="#AAA" x="576" y="288" width="96" height="96"/>
	<rect fill="#FFF" x="672" y="288" width="96" height="96"/>
	<rect fill="#FFF" x="0" y="384" width="96" height="96"/>
	<rect fill="#AAA" x="96" y="384" width="96" height="96"/>
	<rect fill="#FFF" x="192" y="384" width="96" height="96"/>
	<rect fill="#AAA" x="288" y="384" width="96" height="96"/>
	<rect fill="#FFF" x="384" y="384" width="96" height="96"/>
	<rect fill="#AAA" x="480" y="384" width="96" height="96"/>
	<rect fill="#FFF" x="576" y="384" width="96" height="96"/>
	<rect fill="#AAA" x="672" y="384" width="96" height="96"/>
	<rect fill="#AAA" x="0" y="480" width="96" height="96"/>
	<rect fill="#FFF" x="96" y="480" width="96" height="96"/>
	<rect fill="#AAA" x="192" y="480" width="96" height="96"/>
	<rect fill="#FFF" x="288" y="480" width="96" height="96"/>
	<rect fill="#AAA" x="384" y="480" width="96" height="96"/>
	<rect fill="#FFF" x="480" y="480" width="96" height="96"/>
	<rect fill="#AAA" x="576" y="480" width="96" height="96"/>
	<rect fill="#FFF" x="672" y="480" width="96" height="96"/>
	<rect fill="#FFF" x="0" y="576" width="96" height="96"/>
	<rect fill="#AAA" x="96" y="576" width="96" height="96"/>
	<rect fill="#FFF" x="192" y="576" width="96" height="96"/>
	<rect fill="#AAA" x="288" y="576" width="96" height="96"/>
	<rect fill="#FFF" x="384" y="576" width="96" height="96"/>
	<rect fill="#AAA" x="480" y="576" width="96" height="96"/>
	<rect fill="#FFF" x="576" y="576" width="96" height="96"/>
	<rect fill="#AAA" x="672" y="576" width="96" height="96"/>
	<rect fill="#AAA" x="0" y="672" width="96" height="96"/>
	<rect fill="#FFF" x="96" y="672" width="96" height="96"/>
	<rect fill="#AAA" x="192" y="672" width="96" height="96"/>
	<rect fill="#FFF" x="288" y="672" width="96" height="96"/>
	<rect fill="#AAA" x="384" y="672" width="96" height="96"/>
	<rect fill="#FFF" x="480" y="672" width="96" height="96"/>
	<rect fill="#AAA" x="576" y="672" width="96" height="96"/>
	<rect fill="#FFF" x="672" y="672" width="96" height="96"/>
</svg>